# xmcd
#
# Track frame offsets:
#   150
#   16512
#   34125
#   50500
#   65432
#   85607
#   99042
#   120452
#   130680
#   152150
#   167295
#
# Disc length: 2473 seconds
#
# Revision: 0
# Processed by: cddbd v1.5PL3 Copyright (c) Steve Scherf et al.
# Submitted via: uFREEDB ActiveX Control 1.5
#
DISCID=7009a70b
DTITLE=MAURICIO E MAURI - EXCESSO DE AMOR
DYEAR=1900
DGENRE=Country
TTITLE0=TE QUERO
TTITLE1=GATO E SAPATO
TTITLE2=EXCESSO DE AMOR
TTITLE3=SEM SAIDA
TTITLE4=DECISOES INTELIGENTES
TTITLE5=XONADO EU TO
TTITLE6=O AMOR FUGIU DAS MAOS
TTITLE7=ESQUECIDO
TTITLE8=ENTRE DOIS CORACOES
TTITLE9=AMOR DIET
TTITLE10=MINHA FE NO AMOR
EXTD=
EXTT0=
EXTT1=
EXTT2=
EXTT3=
EXTT4=
EXTT5=
EXTT6=
EXTT7=
EXTT8=
EXTT9=
EXTT10=
PLAYORDER=
